<svg viewBox="0 0 512 512" xmlns="http://www.w3.org/2000/svg"><g id="Layer_22" data-name="Layer 22"><path d="m50.16 457.05c4.66 24 25.14 45.21 48.7 50.43h.24a222.48 222.48 0 0 0 45.32 4.52 222.39 222.39 0 0 0 45.26-4.47h.25c23.56-5.22 44-26.43 48.69-50.43 2.63-14 4.64-189.53 4.56-201 .08-11.54-1.93-187-4.56-201-4.62-24.1-25.13-45.36-48.69-50.58h-.25a222.2 222.2 0 0 0 -45.32-4.52 222.39 222.39 0 0 0 -45.26 4.47h-.24c-23.56 5.27-44.04 26.53-48.7 50.53-2.63 14-4.64 189.46-4.56 201-.08 11.52 1.93 187 4.56 201.05zm37.32-7.24s0-.05 0-.08v.17zm113.82 0v.1c0-.07 0-.14 0-.2zm-113.82-387.62v-.1.18s0-.06 0-.08zm.06-.29c1.88-8.9 10.87-18.28 19.46-20.24a180 180 0 0 1 37.36-3.66 182.12 182.12 0 0 1 37.45 3.64c8.56 2 17.55 11.33 19.43 20.24 1.67 14.49 4.15 173.45 3.93 193.89v.42c.22 20.44-2.26 179.39-3.93 193.89-1.88 8.91-10.87 18.28-19.43 20.24a180 180 0 0 1 -37.39 3.68 182.16 182.16 0 0 1 -37.42-3.66c-8.57-2-17.56-11.34-19.44-20.24-1.67-14.49-4.15-173.45-3.93-193.89a2.94 2.94 0 0 0 0-.42c-.24-20.44 2.24-179.4 3.91-193.89z"/><path d="m413.14 4.52h-.24a231.67 231.67 0 0 0 -90.58 0h-.25c-23.55 5.22-44.07 26.48-48.69 50.48-2.63 14-4.64 189.51-4.56 201.05-.08 11.54 1.93 187 4.56 201.05 4.66 24 25.13 45.21 48.69 50.43h.25a231.67 231.67 0 0 0 90.58 0h.24c23.56-5.22 44-26.43 48.7-50.43 2.63-14 4.64-189.51 4.56-201 .08-11.54-1.93-187-4.56-201-4.66-24.1-25.14-45.36-48.7-50.58zm11.38 445.29a.44.44 0 0 0 0 .1 1.18 1.18 0 0 1 0-.2.36.36 0 0 0 0 .1zm-.06.29c-1.88 8.91-10.88 18.29-19.44 20.24a179.84 179.84 0 0 1 -37.38 3.66 182.09 182.09 0 0 1 -37.44-3.64c-8.57-2-17.56-11.33-19.44-20.24-1.67-14.5-4.15-173.45-3.93-193.89v-.42c-.22-20.44 2.26-179.4 3.93-193.89 1.88-8.91 10.87-18.28 19.43-20.24a179.92 179.92 0 0 1 37.38-3.68 182.15 182.15 0 0 1 37.43 3.66c8.56 2 17.55 11.34 19.43 20.24 1.67 14.49 4.15 173.45 3.93 193.89a2.94 2.94 0 0 0 0 .42c.25 20.45-2.23 179.41-3.9 193.89z"/></g></svg>