<svg height="512" viewBox="0 0 512 512" width="512" xmlns="http://www.w3.org/2000/svg"><g id="Layer_1_copy" data-name="Layer 1 copy"><path d="m119.29 38a29.87 29.87 0 0 1 14 3.22c.47.24.94.48 1.42.7 92.92 43.77 210.38 111.57 299.29 172.74 17.8 12.34 21.7 29.26 21.81 41.34-.11 12.09-4 29-21.84 41.35-88.9 61.17-206.35 129-299.24 172.73-.48.22-.95.46-1.42.7a29.87 29.87 0 0 1 -14 3.22c-12.37 0-26.4-6-37.52-16-6.79-6.17-18.42-19.27-19.57-38v-.45a2241.52 2241.52 0 0 1 0-327.18v-.45c1.15-18.65 12.78-31.75 19.55-37.92 11.12-10 25.14-16 37.52-16m0-38c-44.4 0-91.88 39-95 89.63a2270 2270 0 0 0 0 332.74c3.12 50.63 50.6 89.63 95 89.63a67.73 67.73 0 0 0 31.63-7.55c88.24-41.57 207.57-109 304.65-175.83 26.48-18.34 38.09-45.56 38.24-72.62-.15-27.06-11.76-54.28-38.24-72.62-97.08-66.79-216.41-134.26-304.65-175.83a67.73 67.73 0 0 0 -31.63-7.55z"/></g></svg>