<svg fill="none" height="30" viewBox="0 0 30 30" width="30" xmlns="http://www.w3.org/2000/svg"><path d="m9.36065 3.93912c.10448-.68241-.36401-1.3203-1.04642-1.42479-.6824-.10448-1.3203.36401-1.42478 1.04641l-.76554 4.99981c-.09814.64097.31015 1.25056.94023 1.40379l5.14036 1.25006c.6708.1631 1.3469-.2484 1.51-.9193.1631-.67076-.2484-1.3468-.9192-1.50992l-2.4265-.59007c3.3676-2.45074 8.0069-2.19386 10.9165.71568 3.231 3.23111 3.1908 8.59531-.1961 11.98221s-8.7512 3.4271-11.98223.1961c-.48816-.4882-1.27961-.4882-1.76777 0-.48815.4881-.48815 1.2796 0 1.7678 4.2546 4.2545 11.2024 4.1192 15.5178-.1961 4.3153-4.3153 4.4506-11.2632.196-15.51778-3.7908-3.79083-9.7198-4.09659-14.01973-1.06574z" fill="rgb(0,0,0)"/></svg>